<svg width="20" height="20" viewBox="0 0 39 35" fill="none" xmlns="http://www.w3.org/2000/svg">
<path d="M16.5625 31.8333C16.5625 32.5461 16.872 33.2297 17.4229 33.7337C17.9738 34.2377 18.7209 34.5208 19.5 34.5208C20.2791 34.5208 21.0262 34.2377 21.5771 33.7337C22.128 33.2297 22.4375 32.5461 22.4375 31.8333V20.1875H35.1667C35.9457 20.1875 36.6929 19.9044 37.2438 19.4003C37.7947 18.8963 38.1042 18.2128 38.1042 17.5C38.1042 16.7872 37.7947 16.1037 37.2438 15.5996C36.6929 15.0956 35.9457 14.8125 35.1667 14.8125H22.4375V3.16666C22.4375 2.45389 22.128 1.77032 21.5771 1.26631C21.0262 0.762311 20.2791 0.479164 19.5 0.479164C18.7209 0.479164 17.9738 0.762311 17.4229 1.26631C16.872 1.77032 16.5625 2.45389 16.5625 3.16666V14.8125H3.83334C3.05427 14.8125 2.30711 15.0956 1.75622 15.5996C1.20533 16.1037 0.895844 16.7872 0.895844 17.5C0.895844 18.2128 1.20533 18.8963 1.75622 19.4003C2.30711 19.9044 3.05427 20.1875 3.83334 20.1875H16.5625V31.8333Z" fill="black"/>
</svg>
