<svg width="20" height="20" viewBox="0 0 40 36" fill="none" xmlns="http://www.w3.org/2000/svg">
<path d="M17.5 6.75H22.5C22.5 6.15326 22.2366 5.58097 21.7678 5.15901C21.2989 4.73705 20.663 4.5 20 4.5C19.337 4.5 18.7011 4.73705 18.2322 5.15901C17.7634 5.58097 17.5 6.15326 17.5 6.75ZM15 6.75C15 5.55653 15.5268 4.41193 16.4645 3.56802C17.4021 2.72411 18.6739 2.25 20 2.25C21.3261 2.25 22.5979 2.72411 23.5355 3.56802C24.4732 4.41193 25 5.55653 25 6.75H35C35.3315 6.75 35.6495 6.86853 35.8839 7.0795C36.1183 7.29048 36.25 7.57663 36.25 7.875C36.25 8.17337 36.1183 8.45952 35.8839 8.6705C35.6495 8.88147 35.3315 9 35 9H33.59L30.5775 28.8855C30.3732 30.2331 29.6333 31.4684 28.4947 32.3628C27.3562 33.2572 25.8962 33.75 24.385 33.75H15.615C14.1038 33.75 12.6438 33.2572 11.5053 32.3628C10.3667 31.4684 9.62682 30.2331 9.4225 28.8855L6.41 9H5C4.66848 9 4.35054 8.88147 4.11612 8.6705C3.8817 8.45952 3.75 8.17337 3.75 7.875C3.75 7.57663 3.8817 7.29048 4.11612 7.0795C4.35054 6.86853 4.66848 6.75 5 6.75H15ZM17.5 14.625C17.5 14.3266 17.3683 14.0405 17.1339 13.8295C16.8995 13.6185 16.5815 13.5 16.25 13.5C15.9185 13.5 15.6005 13.6185 15.3661 13.8295C15.1317 14.0405 15 14.3266 15 14.625V25.875C15 26.1734 15.1317 26.4595 15.3661 26.6705C15.6005 26.8815 15.9185 27 16.25 27C16.5815 27 16.8995 26.8815 17.1339 26.6705C17.3683 26.4595 17.5 26.1734 17.5 25.875V14.625ZM23.75 13.5C23.4185 13.5 23.1005 13.6185 22.8661 13.8295C22.6317 14.0405 22.5 14.3266 22.5 14.625V25.875C22.5 26.1734 22.6317 26.4595 22.8661 26.6705C23.1005 26.8815 23.4185 27 23.75 27C24.0815 27 24.3995 26.8815 24.6339 26.6705C24.8683 26.4595 25 26.1734 25 25.875V14.625C25 14.3266 24.8683 14.0405 24.6339 13.8295C24.3995 13.6185 24.0815 13.5 23.75 13.5Z" fill="#C12020"/>
</svg>
